STARTFONT 2.1
COMMENT $Id: 5x8.bdf,v 1.32 2006-01-05 20:03:17+00 mgk25 Rel $
COMMENT Send bug reports to Markus Kuhn <http://www.cl.cam.ac.uk/~mgk25/>
FONT -Misc-Fixed-Medium-R-Normal--8-80-75-75-C-50-ISO10646-1
SIZE 11 75 75
FONTBOUNDINGBOX 8 8 0 -1
STARTPROPERTIES 11
FOUNDRY "Misc"
FAMILY_NAME "Fixed"
WEIGHT_NAME "Medium"
SLANT "R"
SETWIDTH_NAME "Normal"
SPACING "c"
CHARSET_REGISTRY "ISO-8859"
CHARSET_ENCODING "1"
COPYRIGHT "Public domain font.  Share and enjoy."
FONT_ASCENT  7
FONT_DESCENT 1
ENDPROPERTIES
CHARS 192
STARTCHAR char0
ENCODING 0
SWIDTH 454 0
DWIDTH 5 0
BBX 4 6 0 0
BITMAP
a0
10
80
10
80
50
ENDCHAR
STARTCHAR space
ENCODING 32
SWIDTH 454 0
DWIDTH 5 0
BBX 0 0 0 0
BITMAP
ENDCHAR
STARTCHAR exclam
ENCODING 33
SWIDTH 454 0
DWIDTH 5 0
BBX 1 6 2 0
BITMAP
80
80
80
80
00
80
ENDCHAR
STARTCHAR quotedbl
ENCODING 34
SWIDTH 454 0
DWIDTH 5 0
BBX 3 3 1 3
BITMAP
a0
a0
a0
ENDCHAR
STARTCHAR numbersign
ENCODING 35
SWIDTH 454 0
DWIDTH 5 0
BBX 5 7 0 0
BITMAP
50
50
f8
50
f8
50
50
ENDCHAR
STARTCHAR dollar
ENCODING 36
SWIDTH 454 0
DWIDTH 5 0
BBX 5 7 0 0
BITMAP
20
70
a0
70
28
70
20
ENDCHAR
STARTCHAR percent
ENCODING 37
SWIDTH 454 0
DWIDTH 5 0
BBX 3 5 1 1
BITMAP
80
a0
40
a0
20
ENDCHAR
STARTCHAR ampersand
ENCODING 38
SWIDTH 454 0
DWIDTH 5 0
BBX 4 7 0 0
BITMAP
40
a0
a0
40
a0
a0
50
ENDCHAR
STARTCHAR quotesingle
ENCODING 39
SWIDTH 454 0
DWIDTH 5 0
BBX 1 3 2 3
BITMAP
80
80
80
ENDCHAR
STARTCHAR parenleft
ENCODING 40
SWIDTH 454 0
DWIDTH 5 0
BBX 2 6 1 0
BITMAP
40
80
80
80
80
40
ENDCHAR
STARTCHAR parenright
ENCODING 41
SWIDTH 454 0
DWIDTH 5 0
BBX 2 6 1 0
BITMAP
80
40
40
40
40
80
ENDCHAR
STARTCHAR asterisk
ENCODING 42
SWIDTH 454 0
DWIDTH 5 0
BBX 4 5 0 0
BITMAP
90
60
f0
60
90
ENDCHAR
STARTCHAR plus
ENCODING 43
SWIDTH 454 0
DWIDTH 5 0
BBX 5 5 0 0
BITMAP
20
20
f8
20
20
ENDCHAR
STARTCHAR comma
ENCODING 44
SWIDTH 454 0
DWIDTH 5 0
BBX 3 3 1 -1
BITMAP
60
40
80
ENDCHAR
STARTCHAR hyphen
ENCODING 45
SWIDTH 454 0
DWIDTH 5 0
BBX 4 1 0 2
BITMAP
f0
ENDCHAR
STARTCHAR period
ENCODING 46
SWIDTH 454 0
DWIDTH 5 0
BBX 3 3 1 -1
BITMAP
40
e0
40
ENDCHAR
STARTCHAR slash
ENCODING 47
SWIDTH 454 0
DWIDTH 5 0
BBX 4 6 0 0
BITMAP
10
10
20
40
80
80
ENDCHAR
STARTCHAR zero
ENCODING 48
SWIDTH 454 0
DWIDTH 5 0
BBX 3 6 1 0
BITMAP
40
a0
a0
a0
a0
40
ENDCHAR
STARTCHAR one
ENCODING 49
SWIDTH 454 0
DWIDTH 5 0
BBX 3 6 1 0
BITMAP
40
c0
40
40
40
e0
ENDCHAR
STARTCHAR two
ENCODING 50
SWIDTH 454 0
DWIDTH 5 0
BBX 4 6 0 0
BITMAP
60
90
10
60
80
f0
ENDCHAR
STARTCHAR three
ENCODING 51
SWIDTH 454 0
DWIDTH 5 0
BBX 4 6 0 0
BITMAP
f0
20
60
10
90
60
ENDCHAR
STARTCHAR four
ENCODING 52
SWIDTH 454 0
DWIDTH 5 0
BBX 4 6 0 0
BITMAP
20
60
a0
f0
20
20
ENDCHAR
STARTCHAR five
ENCODING 53
SWIDTH 454 0
DWIDTH 5 0
BBX 4 6 0 0
BITMAP
f0
80
e0
10
90
60
ENDCHAR
STARTCHAR six
ENCODING 54
SWIDTH 454 0
DWIDTH 5 0
BBX 4 6 0 0
BITMAP
60
80
e0
90
90
60
ENDCHAR
STARTCHAR seven
ENCODING 55
SWIDTH 454 0
DWIDTH 5 0
BBX 4 6 0 0
BITMAP
f0
10
20
20
40
40
ENDCHAR
STARTCHAR eight
ENCODING 56
SWIDTH 454 0
DWIDTH 5 0
BBX 4 6 0 0
BITMAP
60
90
60
90
90
60
ENDCHAR
STARTCHAR nine
ENCODING 57
SWIDTH 454 0
DWIDTH 5 0
BBX 4 6 0 0
BITMAP
60
90
90
70
10
60
ENDCHAR
STARTCHAR colon
ENCODING 58
SWIDTH 454 0
DWIDTH 5 0
BBX 2 5 1 0
BITMAP
c0
c0
00
c0
c0
ENDCHAR
STARTCHAR semicolon
ENCODING 59
SWIDTH 454 0
DWIDTH 5 0
BBX 3 6 1 -1
BITMAP
60
60
00
60
40
80
ENDCHAR
STARTCHAR less
ENCODING 60
SWIDTH 454 0
DWIDTH 5 0
BBX 3 6 1 0
BITMAP
20
40
80
80
40
20
ENDCHAR
STARTCHAR equal
ENCODING 61
SWIDTH 454 0
DWIDTH 5 0
BBX 4 3 0 1
BITMAP
f0
00
f0
ENDCHAR
STARTCHAR greater
ENCODING 62
SWIDTH 454 0
DWIDTH 5 0
BBX 3 6 1 0
BITMAP
80
40
20
20
40
80
ENDCHAR
STARTCHAR question
ENCODING 63
SWIDTH 454 0
DWIDTH 5 0
BBX 3 6 1 0
BITMAP
40
a0
20
40
00
40
ENDCHAR
STARTCHAR at
ENCODING 64
SWIDTH 454 0
DWIDTH 5 0
BBX 5 8 0 -1
BITMAP
30
48
98
a8
a8
90
40
30
ENDCHAR
STARTCHAR A
ENCODING 65
SWIDTH 454 0
DWIDTH 5 0
BBX 4 6 0 0
BITMAP
60
90
90
f0
90
90
ENDCHAR
STARTCHAR B
ENCODING 66
SWIDTH 454 0
DWIDTH 5 0
BBX 4 6 0 0
BITMAP
e0
90
e0
90
90
e0
ENDCHAR
STARTCHAR C
ENCODING 67
SWIDTH 454 0
DWIDTH 5 0
BBX 4 6 0 0
BITMAP
60
90
80
80
90
60
ENDCHAR
STARTCHAR D
ENCODING 68
SWIDTH 454 0
DWIDTH 5 0
BBX 4 6 0 0
BITMAP
e0
90
90
90
90
e0
ENDCHAR
STARTCHAR E
ENCODING 69
SWIDTH 454 0
DWIDTH 5 0
BBX 4 6 0 0
BITMAP
f0
80
e0
80
80
f0
ENDCHAR
STARTCHAR F
ENCODING 70
SWIDTH 454 0
DWIDTH 5 0
BBX 4 6 0 0
BITMAP
f0
80
e0
80
80
80
ENDCHAR
STARTCHAR G
ENCODING 71
SWIDTH 454 0
DWIDTH 5 0
BBX 4 6 0 0
BITMAP
60
90
80
b0
90
60
ENDCHAR
STARTCHAR H
ENCODING 72
SWIDTH 454 0
DWIDTH 5 0
BBX 4 6 0 0
BITMAP
90
90
f0
90
90
90
ENDCHAR
STARTCHAR I
ENCODING 73
SWIDTH 454 0
DWIDTH 5 0
BBX 3 6 1 0
BITMAP
e0
40
40
40
40
e0
ENDCHAR
STARTCHAR J
ENCODING 74
SWIDTH 454 0
DWIDTH 5 0
BBX 4 6 0 0
BITMAP
70
20
20
20
a0
40
ENDCHAR
STARTCHAR K
ENCODING 75
SWIDTH 454 0
DWIDTH 5 0
BBX 4 6 0 0
BITMAP
90
a0
c0
a0
a0
90
ENDCHAR
STARTCHAR L
ENCODING 76
SWIDTH 454 0
DWIDTH 5 0
BBX 4 6 0 0
BITMAP
80
80
80
80
80
f0
ENDCHAR
STARTCHAR M
ENCODING 77
SWIDTH 454 0
DWIDTH 5 0
BBX 4 6 0 0
BITMAP
90
f0
f0
90
90
90
ENDCHAR
STARTCHAR N
ENCODING 78
SWIDTH 454 0
DWIDTH 5 0
BBX 4 6 0 0
BITMAP
90
d0
f0
b0
b0
90
ENDCHAR
STARTCHAR O
ENCODING 79
SWIDTH 454 0
DWIDTH 5 0
BBX 4 6 0 0
BITMAP
60
90
90
90
90
60
ENDCHAR
STARTCHAR P
ENCODING 80
SWIDTH 454 0
DWIDTH 5 0
BBX 4 6 0 0
BITMAP
e0
90
90
e0
80
80
ENDCHAR
STARTCHAR Q
ENCODING 81
SWIDTH 454 0
DWIDTH 5 0
BBX 4 7 0 -1
BITMAP
60
90
90
d0
b0
60
10
ENDCHAR
STARTCHAR R
ENCODING 82
SWIDTH 454 0
DWIDTH 5 0
BBX 4 6 0 0
BITMAP
e0
90
90
e0
90
90
ENDCHAR
STARTCHAR S
ENCODING 83
SWIDTH 454 0
DWIDTH 5 0
BBX 4 6 0 0
BITMAP
60
90
40
20
90
60
ENDCHAR
STARTCHAR T
ENCODING 84
SWIDTH 454 0
DWIDTH 5 0
BBX 3 6 1 0
BITMAP
e0
40
40
40
40
40
ENDCHAR
STARTCHAR U
ENCODING 85
SWIDTH 454 0
DWIDTH 5 0
BBX 4 6 0 0
BITMAP
90
90
90
90
90
60
ENDCHAR
STARTCHAR V
ENCODING 86
SWIDTH 454 0
DWIDTH 5 0
BBX 4 6 0 0
BITMAP
90
90
90
90
60
60
ENDCHAR
STARTCHAR W
ENCODING 87
SWIDTH 454 0
DWIDTH 5 0
BBX 4 6 0 0
BITMAP
90
90
90
f0
f0
90
ENDCHAR
STARTCHAR X
ENCODING 88
SWIDTH 454 0
DWIDTH 5 0
BBX 4 6 0 0
BITMAP
90
90
60
60
90
90
ENDCHAR
STARTCHAR Y
ENCODING 89
SWIDTH 454 0
DWIDTH 5 0
BBX 5 6 0 0
BITMAP
88
88
50
20
20
20
ENDCHAR
STARTCHAR Z
ENCODING 90
SWIDTH 454 0
DWIDTH 5 0
BBX 4 6 0 0
BITMAP
f0
10
20
40
80
f0
ENDCHAR
STARTCHAR bracketleft
ENCODING 91
SWIDTH 454 0
DWIDTH 5 0
BBX 3 6 1 0
BITMAP
e0
80
80
80
80
e0
ENDCHAR
STARTCHAR backslash
ENCODING 92
SWIDTH 454 0
DWIDTH 5 0
BBX 4 6 0 0
BITMAP
80
80
40
20
10
10
ENDCHAR
STARTCHAR bracketright
ENCODING 93
SWIDTH 454 0
DWIDTH 5 0
BBX 3 6 1 0
BITMAP
e0
20
20
20
20
e0
ENDCHAR
STARTCHAR asciicircum
ENCODING 94
SWIDTH 454 0
DWIDTH 5 0
BBX 3 2 1 4
BITMAP
40
a0
ENDCHAR
STARTCHAR underscore
ENCODING 95
SWIDTH 454 0
DWIDTH 5 0
BBX 4 1 0 -1
BITMAP
f0
ENDCHAR
STARTCHAR grave
ENCODING 96
SWIDTH 454 0
DWIDTH 5 0
BBX 2 2 1 4
BITMAP
80
40
ENDCHAR
STARTCHAR a
ENCODING 97
SWIDTH 454 0
DWIDTH 5 0
BBX 4 4 0 0
BITMAP
70
90
90
70
ENDCHAR
STARTCHAR b
ENCODING 98
SWIDTH 454 0
DWIDTH 5 0
BBX 4 6 0 0
BITMAP
80
80
e0
90
90
e0
ENDCHAR
STARTCHAR c
ENCODING 99
SWIDTH 454 0
DWIDTH 5 0
BBX 3 4 1 0
BITMAP
60
80
80
60
ENDCHAR
STARTCHAR d
ENCODING 100
SWIDTH 454 0
DWIDTH 5 0
BBX 4 6 0 0
BITMAP
10
10
70
90
90
70
ENDCHAR
STARTCHAR e
ENCODING 101
SWIDTH 454 0
DWIDTH 5 0
BBX 4 4 0 0
BITMAP
60
b0
c0
60
ENDCHAR
STARTCHAR f
ENCODING 102
SWIDTH 454 0
DWIDTH 5 0
BBX 4 6 0 0
BITMAP
20
50
40
e0
40
40
ENDCHAR
STARTCHAR g
ENCODING 103
SWIDTH 454 0
DWIDTH 5 0
BBX 4 5 0 -1
BITMAP
60
90
70
10
60
ENDCHAR
STARTCHAR h
ENCODING 104
SWIDTH 454 0
DWIDTH 5 0
BBX 4 6 0 0
BITMAP
80
80
e0
90
90
90
ENDCHAR
STARTCHAR i
ENCODING 105
SWIDTH 454 0
DWIDTH 5 0
BBX 3 6 1 0
BITMAP
40
00
c0
40
40
e0
ENDCHAR
STARTCHAR j
ENCODING 106
SWIDTH 454 0
DWIDTH 5 0
BBX 3 7 1 -1
BITMAP
20
00
20
20
20
a0
40
ENDCHAR
STARTCHAR k
ENCODING 107
SWIDTH 454 0
DWIDTH 5 0
BBX 4 6 0 0
BITMAP
80
80
90
e0
90
90
ENDCHAR
STARTCHAR l
ENCODING 108
SWIDTH 454 0
DWIDTH 5 0
BBX 3 6 1 0
BITMAP
c0
40
40
40
40
e0
ENDCHAR
STARTCHAR m
ENCODING 109
SWIDTH 454 0
DWIDTH 5 0
BBX 5 4 0 0
BITMAP
d0
a8
a8
a8
ENDCHAR
STARTCHAR n
ENCODING 110
SWIDTH 454 0
DWIDTH 5 0
BBX 4 4 0 0
BITMAP
e0
90
90
90
ENDCHAR
STARTCHAR o
ENCODING 111
SWIDTH 454 0
DWIDTH 5 0
BBX 4 4 0 0
BITMAP
60
90
90
60
ENDCHAR
STARTCHAR p
ENCODING 112
SWIDTH 454 0
DWIDTH 5 0
BBX 4 5 0 -1
BITMAP
e0
90
e0
80
80
ENDCHAR
STARTCHAR q
ENCODING 113
SWIDTH 454 0
DWIDTH 5 0
BBX 4 5 0 -1
BITMAP
70
90
70
10
10
ENDCHAR
STARTCHAR r
ENCODING 114
SWIDTH 454 0
DWIDTH 5 0
BBX 4 4 0 0
BITMAP
a0
d0
80
80
ENDCHAR
STARTCHAR s
ENCODING 115
SWIDTH 454 0
DWIDTH 5 0
BBX 3 4 1 0
BITMAP
60
c0
20
c0
ENDCHAR
STARTCHAR t
ENCODING 116
SWIDTH 454 0
DWIDTH 5 0
BBX 4 6 0 0
BITMAP
40
40
e0
40
50
20
ENDCHAR
STARTCHAR u
ENCODING 117
SWIDTH 454 0
DWIDTH 5 0
BBX 4 4 0 0
BITMAP
90
90
90
70
ENDCHAR
STARTCHAR v
ENCODING 118
SWIDTH 454 0
DWIDTH 5 0
BBX 3 4 1 0
BITMAP
a0
a0
a0
40
ENDCHAR
STARTCHAR w
ENCODING 119
SWIDTH 454 0
DWIDTH 5 0
BBX 5 4 0 0
BITMAP
88
a8
a8
50
ENDCHAR
STARTCHAR x
ENCODING 120
SWIDTH 454 0
DWIDTH 5 0
BBX 4 4 0 0
BITMAP
90
60
60
90
ENDCHAR
STARTCHAR y
ENCODING 121
SWIDTH 454 0
DWIDTH 5 0
BBX 4 5 0 -1
BITMAP
90
90
70
90
60
ENDCHAR
STARTCHAR z
ENCODING 122
SWIDTH 454 0
DWIDTH 5 0
BBX 4 4 0 0
BITMAP
f0
20
40
f0
ENDCHAR
STARTCHAR braceleft
ENCODING 123
SWIDTH 454 0
DWIDTH 5 0
BBX 4 7 0 0
BITMAP
30
40
20
c0
20
40
30
ENDCHAR
STARTCHAR bar
ENCODING 124
SWIDTH 454 0
DWIDTH 5 0
BBX 1 6 2 0
BITMAP
80
80
80
80
80
80
ENDCHAR
STARTCHAR braceright
ENCODING 125
SWIDTH 454 0
DWIDTH 5 0
BBX 4 7 0 0
BITMAP
c0
20
40
30
40
20
c0
ENDCHAR
STARTCHAR asciitilde
ENCODING 126
SWIDTH 454 0
DWIDTH 5 0
BBX 4 2 0 4
BITMAP
50
a0
ENDCHAR
STARTCHAR space
ENCODING 160
SWIDTH 454 0
DWIDTH 5 0
BBX 0 0 0 0
BITMAP
ENDCHAR
STARTCHAR exclamdown
ENCODING 161
SWIDTH 727 0
DWIDTH 8 0
BBX 8 8 0 -1
BITMAP
7e
81
81
ff
bd
ff
24
42
ENDCHAR
STARTCHAR cent
ENCODING 162
SWIDTH 727 0
DWIDTH 8 0
BBX 7 8 0 -1
BITMAP
6e
7e
7e
7e
6e
44
44
cc
ENDCHAR
STARTCHAR sterling
ENCODING 163
SWIDTH 727 0
DWIDTH 8 0
BBX 8 8 0 -1
BITMAP
0a
04
ff
26
a6
bf
ff
66
ENDCHAR
STARTCHAR currency
ENCODING 164
SWIDTH 454 0
DWIDTH 5 0
BBX 8 5 0 -1
BITMAP
3e
12
ff
db
24
ENDCHAR
STARTCHAR yen
ENCODING 165
SWIDTH 454 0
DWIDTH 5 0
BBX 8 7 0 -1
BITMAP
fe
55
55
d5
df
bb
44
ENDCHAR
STARTCHAR brokenbar
ENCODING 166
SWIDTH 454 0
DWIDTH 5 0
BBX 8 7 0 -1
BITMAP
30
62
24
3c
ef
a5
e7
ENDCHAR
STARTCHAR section
ENCODING 167
SWIDTH 454 0
DWIDTH 5 0
BBX 4 7 0 0
BITMAP
70
80
e0
90
70
10
e0
ENDCHAR
STARTCHAR dieresis
ENCODING 168
SWIDTH 454 0
DWIDTH 5 0
BBX 3 1 1 5
BITMAP
a0
ENDCHAR
STARTCHAR copyright
ENCODING 169
SWIDTH 454 0
DWIDTH 5 0
BBX 5 6 0 0
BITMAP
70
a8
c8
c8
a8
70
ENDCHAR
STARTCHAR ordfeminine
ENCODING 170
SWIDTH 454 0
DWIDTH 5 0
BBX 3 5 1 2
BITMAP
60
a0
60
00
e0
ENDCHAR
STARTCHAR guillemotleft
ENCODING 171
SWIDTH 454 0
DWIDTH 5 0
BBX 4 3 0 1
BITMAP
50
a0
50
ENDCHAR
STARTCHAR logicalnot
ENCODING 172
SWIDTH 454 0
DWIDTH 5 0
BBX 3 3 1 0
BITMAP
e0
20
20
ENDCHAR
STARTCHAR hyphen
ENCODING 173
SWIDTH 454 0
DWIDTH 5 0
BBX 3 1 1 2
BITMAP
e0
ENDCHAR
STARTCHAR registered
ENCODING 174
SWIDTH 454 0
DWIDTH 5 0
BBX 5 6 0 0
BITMAP
70
e8
d8
e8
d8
70
ENDCHAR
STARTCHAR macron
ENCODING 175
SWIDTH 454 0
DWIDTH 5 0
BBX 3 1 1 5
BITMAP
e0
ENDCHAR
STARTCHAR degree
ENCODING 176
SWIDTH 454 0
DWIDTH 5 0
BBX 3 3 1 3
BITMAP
40
a0
40
ENDCHAR
STARTCHAR plusminus
ENCODING 177
SWIDTH 454 0
DWIDTH 5 0
BBX 3 5 1 0
BITMAP
40
e0
40
00
e0
ENDCHAR
STARTCHAR twosuperior
ENCODING 178
SWIDTH 454 0
DWIDTH 5 0
BBX 3 5 1 2
BITMAP
40
a0
20
40
e0
ENDCHAR
STARTCHAR threesuperior
ENCODING 179
SWIDTH 454 0
DWIDTH 5 0
BBX 3 5 1 2
BITMAP
c0
20
c0
20
c0
ENDCHAR
STARTCHAR acute
ENCODING 180
SWIDTH 454 0
DWIDTH 5 0
BBX 2 2 1 4
BITMAP
40
80
ENDCHAR
STARTCHAR mu
ENCODING 181
SWIDTH 454 0
DWIDTH 5 0
BBX 4 5 0 -1
BITMAP
90
90
90
e0
80
ENDCHAR
STARTCHAR paragraph
ENCODING 182
SWIDTH 454 0
DWIDTH 5 0
BBX 5 6 0 0
BITMAP
78
e8
e8
68
28
28
ENDCHAR
STARTCHAR periodcentered
ENCODING 183
SWIDTH 454 0
DWIDTH 5 0
BBX 1 1 2 2
BITMAP
80
ENDCHAR
STARTCHAR cedilla
ENCODING 184
SWIDTH 454 0
DWIDTH 5 0
BBX 2 2 1 -1
BITMAP
40
80
ENDCHAR
STARTCHAR onesuperior
ENCODING 185
SWIDTH 454 0
DWIDTH 5 0
BBX 3 5 1 2
BITMAP
40
c0
40
40
e0
ENDCHAR
STARTCHAR ordmasculine
ENCODING 186
SWIDTH 454 0
DWIDTH 5 0
BBX 3 5 1 2
BITMAP
40
a0
40
00
e0
ENDCHAR
STARTCHAR guillemotright
ENCODING 187
SWIDTH 454 0
DWIDTH 5 0
BBX 4 3 0 1
BITMAP
a0
50
a0
ENDCHAR
STARTCHAR onequarter
ENCODING 188
SWIDTH 454 0
DWIDTH 5 0
BBX 4 7 0 0
BITMAP
80
80
80
a0
60
f0
20
ENDCHAR
STARTCHAR onehalf
ENCODING 189
SWIDTH 454 0
DWIDTH 5 0
BBX 4 7 0 0
BITMAP
80
80
a0
d0
10
20
70
ENDCHAR
STARTCHAR threequarters
ENCODING 190
SWIDTH 454 0
DWIDTH 5 0
BBX 4 7 0 0
BITMAP
80
40
80
60
a0
f0
20
ENDCHAR
STARTCHAR questiondown
ENCODING 191
SWIDTH 454 0
DWIDTH 5 0
BBX 3 6 1 0
BITMAP
40
00
40
80
a0
40
ENDCHAR
STARTCHAR Agrave
ENCODING 192
SWIDTH 454 0
DWIDTH 5 0
BBX 4 7 0 0
BITMAP
40
20
60
90
f0
90
90
ENDCHAR
STARTCHAR Aacute
ENCODING 193
SWIDTH 454 0
DWIDTH 5 0
BBX 4 7 0 0
BITMAP
20
40
60
90
f0
90
90
ENDCHAR
STARTCHAR Acircumflex
ENCODING 194
SWIDTH 454 0
DWIDTH 5 0
BBX 4 7 0 0
BITMAP
60
90
60
90
f0
90
90
ENDCHAR
STARTCHAR Atilde
ENCODING 195
SWIDTH 454 0
DWIDTH 5 0
BBX 4 7 0 0
BITMAP
50
a0
60
90
f0
90
90
ENDCHAR
STARTCHAR Adieresis
ENCODING 196
SWIDTH 454 0
DWIDTH 5 0
BBX 4 7 0 0
BITMAP
90
00
60
90
f0
90
90
ENDCHAR
STARTCHAR Aring
ENCODING 197
SWIDTH 454 0
DWIDTH 5 0
BBX 4 7 0 0
BITMAP
60
90
60
90
f0
90
90
ENDCHAR
STARTCHAR AE
ENCODING 198
SWIDTH 454 0
DWIDTH 5 0
BBX 4 6 0 0
BITMAP
70
a0
a0
f0
a0
b0
ENDCHAR
STARTCHAR Ccedilla
ENCODING 199
SWIDTH 454 0
DWIDTH 5 0
BBX 4 7 0 -1
BITMAP
60
90
80
80
90
60
40
ENDCHAR
STARTCHAR Egrave
ENCODING 200
SWIDTH 454 0
DWIDTH 5 0
BBX 4 7 0 0
BITMAP
40
20
f0
80
e0
80
f0
ENDCHAR
STARTCHAR Eacute
ENCODING 201
SWIDTH 454 0
DWIDTH 5 0
BBX 4 7 0 0
BITMAP
20
40
f0
80
e0
80
f0
ENDCHAR
STARTCHAR Ecircumflex
ENCODING 202
SWIDTH 454 0
DWIDTH 5 0
BBX 4 7 0 0
BITMAP
60
90
f0
80
e0
80
f0
ENDCHAR
STARTCHAR Edieresis
ENCODING 203
SWIDTH 454 0
DWIDTH 5 0
BBX 4 7 0 0
BITMAP
90
00
f0
80
e0
80
f0
ENDCHAR
STARTCHAR Igrave
ENCODING 204
SWIDTH 454 0
DWIDTH 5 0
BBX 3 7 1 0
BITMAP
80
40
e0
40
40
40
e0
ENDCHAR
STARTCHAR Iacute
ENCODING 205
SWIDTH 454 0
DWIDTH 5 0
BBX 3 7 1 0
BITMAP
20
40
e0
40
40
40
e0
ENDCHAR
STARTCHAR Icircumflex
ENCODING 206
SWIDTH 454 0
DWIDTH 5 0
BBX 3 7 1 0
BITMAP
40
a0
e0
40
40
40
e0
ENDCHAR
STARTCHAR Idieresis
ENCODING 207
SWIDTH 454 0
DWIDTH 5 0
BBX 3 7 1 0
BITMAP
a0
00
e0
40
40
40
e0
ENDCHAR
STARTCHAR Eth
ENCODING 208
SWIDTH 454 0
DWIDTH 5 0
BBX 5 6 0 0
BITMAP
70
48
e8
48
48
70
ENDCHAR
STARTCHAR Ntilde
ENCODING 209
SWIDTH 454 0
DWIDTH 5 0
BBX 4 7 0 0
BITMAP
50
a0
90
d0
b0
90
90
ENDCHAR
STARTCHAR Ograve
ENCODING 210
SWIDTH 454 0
DWIDTH 5 0
BBX 4 7 0 0
BITMAP
40
20
60
90
90
90
60
ENDCHAR
STARTCHAR Oacute
ENCODING 211
SWIDTH 454 0
DWIDTH 5 0
BBX 4 7 0 0
BITMAP
20
40
60
90
90
90
60
ENDCHAR
STARTCHAR Ocircumflex
ENCODING 212
SWIDTH 454 0
DWIDTH 5 0
BBX 4 7 0 0
BITMAP
60
90
60
90
90
90
60
ENDCHAR
STARTCHAR Otilde
ENCODING 213
SWIDTH 454 0
DWIDTH 5 0
BBX 4 7 0 0
BITMAP
50
a0
60
90
90
90
60
ENDCHAR
STARTCHAR Odieresis
ENCODING 214
SWIDTH 454 0
DWIDTH 5 0
BBX 4 7 0 0
BITMAP
90
00
60
90
90
90
60
ENDCHAR
STARTCHAR multiply
ENCODING 215
SWIDTH 454 0
DWIDTH 5 0
BBX 3 3 1 0
BITMAP
a0
40
a0
ENDCHAR
STARTCHAR Oslash
ENCODING 216
SWIDTH 454 0
DWIDTH 5 0
BBX 4 6 0 0
BITMAP
70
b0
b0
d0
d0
e0
ENDCHAR
STARTCHAR Ugrave
ENCODING 217
SWIDTH 454 0
DWIDTH 5 0
BBX 4 7 0 0
BITMAP
40
20
90
90
90
90
60
ENDCHAR
STARTCHAR Uacute
ENCODING 218
SWIDTH 454 0
DWIDTH 5 0
BBX 4 7 0 0
BITMAP
20
40
90
90
90
90
60
ENDCHAR
STARTCHAR Ucircumflex
ENCODING 219
SWIDTH 454 0
DWIDTH 5 0
BBX 4 7 0 0
BITMAP
60
90
90
90
90
90
60
ENDCHAR
STARTCHAR Udieresis
ENCODING 220
SWIDTH 454 0
DWIDTH 5 0
BBX 4 7 0 0
BITMAP
90
00
90
90
90
90
60
ENDCHAR
STARTCHAR Yacute
ENCODING 221
SWIDTH 454 0
DWIDTH 5 0
BBX 5 7 0 0
BITMAP
10
20
88
50
20
20
20
ENDCHAR
STARTCHAR Thorn
ENCODING 222
SWIDTH 454 0
DWIDTH 5 0
BBX 4 6 0 0
BITMAP
80
e0
90
90
e0
80
ENDCHAR
STARTCHAR germandbls
ENCODING 223
SWIDTH 454 0
DWIDTH 5 0
BBX 4 6 0 0
BITMAP
60
90
a0
a0
90
a0
ENDCHAR
STARTCHAR agrave
ENCODING 224
SWIDTH 454 0
DWIDTH 5 0
BBX 4 7 0 0
BITMAP
40
20
00
70
90
90
70
ENDCHAR
STARTCHAR aacute
ENCODING 225
SWIDTH 454 0
DWIDTH 5 0
BBX 4 7 0 0
BITMAP
20
40
00
70
90
90
70
ENDCHAR
STARTCHAR acircumflex
ENCODING 226
SWIDTH 454 0
DWIDTH 5 0
BBX 4 7 0 0
BITMAP
20
50
00
70
90
90
70
ENDCHAR
STARTCHAR atilde
ENCODING 227
SWIDTH 454 0
DWIDTH 5 0
BBX 4 7 0 0
BITMAP
50
a0
00
70
90
90
70
ENDCHAR
STARTCHAR adieresis
ENCODING 228
SWIDTH 454 0
DWIDTH 5 0
BBX 4 6 0 0
BITMAP
50
00
70
90
90
70
ENDCHAR
STARTCHAR aring
ENCODING 229
SWIDTH 454 0
DWIDTH 5 0
BBX 4 7 0 0
BITMAP
60
90
60
70
90
90
70
ENDCHAR
STARTCHAR ae
ENCODING 230
SWIDTH 454 0
DWIDTH 5 0
BBX 5 4 0 0
BITMAP
f0
68
b0
78
ENDCHAR
STARTCHAR ccedilla
ENCODING 231
SWIDTH 454 0
DWIDTH 5 0
BBX 3 5 1 -1
BITMAP
60
80
80
60
40
ENDCHAR
STARTCHAR egrave
ENCODING 232
SWIDTH 454 0
DWIDTH 5 0
BBX 4 7 0 0
BITMAP
40
20
00
60
b0
c0
60
ENDCHAR
STARTCHAR eacute
ENCODING 233
SWIDTH 454 0
DWIDTH 5 0
BBX 4 7 0 0
BITMAP
20
40
00
60
b0
c0
60
ENDCHAR
STARTCHAR ecircumflex
ENCODING 234
SWIDTH 454 0
DWIDTH 5 0
BBX 4 7 0 0
BITMAP
60
90
00
60
b0
c0
60
ENDCHAR
STARTCHAR edieresis
ENCODING 235
SWIDTH 454 0
DWIDTH 5 0
BBX 4 6 0 0
BITMAP
50
00
60
b0
c0
60
ENDCHAR
STARTCHAR igrave
ENCODING 236
SWIDTH 454 0
DWIDTH 5 0
BBX 3 7 1 0
BITMAP
80
40
00
c0
40
40
e0
ENDCHAR
STARTCHAR iacute
ENCODING 237
SWIDTH 454 0
DWIDTH 5 0
BBX 3 7 1 0
BITMAP
20
40
00
c0
40
40
e0
ENDCHAR
STARTCHAR icircumflex
ENCODING 238
SWIDTH 454 0
DWIDTH 5 0
BBX 3 7 1 0
BITMAP
40
a0
00
c0
40
40
e0
ENDCHAR
STARTCHAR idieresis
ENCODING 239
SWIDTH 454 0
DWIDTH 5 0
BBX 3 6 1 0
BITMAP
a0
00
c0
40
40
e0
ENDCHAR
STARTCHAR eth
ENCODING 240
SWIDTH 454 0
DWIDTH 5 0
BBX 4 7 0 0
BITMAP
a0
40
a0
10
70
90
60
ENDCHAR
STARTCHAR ntilde
ENCODING 241
SWIDTH 454 0
DWIDTH 5 0
BBX 4 7 0 0
BITMAP
50
a0
00
e0
90
90
90
ENDCHAR
STARTCHAR ograve
ENCODING 242
SWIDTH 454 0
DWIDTH 5 0
BBX 4 7 0 0
BITMAP
40
20
00
60
90
90
60
ENDCHAR
STARTCHAR oacute
ENCODING 243
SWIDTH 454 0
DWIDTH 5 0
BBX 4 7 0 0
BITMAP
20
40
00
60
90
90
60
ENDCHAR
STARTCHAR ocircumflex
ENCODING 244
SWIDTH 454 0
DWIDTH 5 0
BBX 4 7 0 0
BITMAP
60
90
00
60
90
90
60
ENDCHAR
STARTCHAR otilde
ENCODING 245
SWIDTH 454 0
DWIDTH 5 0
BBX 4 7 0 0
BITMAP
50
a0
00
60
90
90
60
ENDCHAR
STARTCHAR odieresis
ENCODING 246
SWIDTH 454 0
DWIDTH 5 0
BBX 4 6 0 0
BITMAP
90
00
60
90
90
60
ENDCHAR
STARTCHAR divide
ENCODING 247
SWIDTH 454 0
DWIDTH 5 0
BBX 3 5 1 0
BITMAP
40
00
e0
00
40
ENDCHAR
STARTCHAR oslash
ENCODING 248
SWIDTH 454 0
DWIDTH 5 0
BBX 4 4 0 0
BITMAP
70
b0
d0
e0
ENDCHAR
STARTCHAR ugrave
ENCODING 249
SWIDTH 454 0
DWIDTH 5 0
BBX 4 7 0 0
BITMAP
40
20
00
90
90
90
70
ENDCHAR
STARTCHAR uacute
ENCODING 250
SWIDTH 454 0
DWIDTH 5 0
BBX 4 7 0 0
BITMAP
20
40
00
90
90
90
70
ENDCHAR
STARTCHAR ucircumflex
ENCODING 251
SWIDTH 454 0
DWIDTH 5 0
BBX 4 7 0 0
BITMAP
60
90
00
90
90
90
70
ENDCHAR
STARTCHAR udieresis
ENCODING 252
SWIDTH 454 0
DWIDTH 5 0
BBX 4 6 0 0
BITMAP
90
00
90
90
90
70
ENDCHAR
STARTCHAR yacute
ENCODING 253
SWIDTH 454 0
DWIDTH 5 0
BBX 4 8 0 -1
BITMAP
20
40
00
90
90
70
90
60
ENDCHAR
STARTCHAR thorn
ENCODING 254
SWIDTH 454 0
DWIDTH 5 0
BBX 4 7 0 -1
BITMAP
80
80
e0
90
e0
80
80
ENDCHAR
STARTCHAR ydieresis
ENCODING 255
SWIDTH 454 0
DWIDTH 5 0
BBX 4 7 0 -1
BITMAP
90
00
90
90
70
90
60
ENDCHAR
ENDFONT
